<?xml version="1.0" standalone="no"?>
<!DOCTYPE svg PUBLIC "-//W3C//DTD SVG 20010904//EN"
 "http://www.w3.org/TR/2001/REC-SVG-20010904/DTD/svg10.dtd">
<svg version="1.0" xmlns="http://www.w3.org/2000/svg"
 width="1890.000000pt" height="1417.000000pt" viewBox="0 0 1890.000000 1417.000000"
 preserveAspectRatio="xMidYMid meet">
<metadata>
Created by potrace 1.16, written by Peter Selinger 2001-2019
</metadata>
<g transform="translate(0.000000,1417.000000) scale(0.100000,-0.100000)"
fill="#000000" stroke="none">
<path d="M9280 12154 c-30 -2 -75 -7 -100 -10 l-45 -7 45 -13 c40 -11 19 -12
-180 -13 -124 -1 -235 -4 -248 -7 -21 -6 -21 -7 -5 -20 15 -11 0 -13 -107 -14
-83 -1 -135 -5 -155 -15 -20 -9 -24 -14 -12 -14 9 -1 17 -5 17 -11 0 -6 -38
-10 -93 -10 -98 0 -114 -4 -96 -27 9 -11 -3 -13 -71 -13 -73 0 -82 -2 -87 -20
-4 -16 -14 -20 -53 -20 -44 0 -138 -29 -97 -30 9 0 17 -4 17 -10 0 -5 -30 -10
-67 -12 -58 -3 -68 -6 -67 -20 2 -15 -7 -18 -55 -18 -59 0 -83 -12 -74 -36 4
-11 -7 -14 -46 -14 -44 0 -51 -3 -51 -20 0 -17 -7 -20 -44 -20 -54 0 -76 -8
-76 -26 0 -13 -18 -17 -72 -17 -16 0 -19 -5 -18 -34 0 -5 -21 -10 -47 -13 -38
-4 -48 -9 -47 -22 1 -13 -6 -18 -26 -18 -41 0 -60 -10 -60 -31 0 -15 -7 -19
-34 -19 -33 0 -62 -20 -49 -33 3 -4 -7 -7 -23 -7 -16 0 -37 -7 -47 -14 -18
-14 -18 -14 0 -19 10 -3 2 -5 -18 -6 -38 -1 -66 -22 -54 -41 4 -6 -5 -10 -22
-11 -53 -2 -58 -4 -58 -19 0 -8 -11 -17 -25 -20 -16 -3 -26 -13 -28 -28 -3
-18 -10 -22 -43 -22 -35 0 -40 -3 -38 -27 0 -5 -10 -10 -23 -13 -14 -4 -24
-15 -26 -28 -3 -18 -10 -22 -42 -22 -41 0 -62 -16 -39 -31 10 -6 4 -9 -18 -9
-25 0 -32 -5 -35 -22 -2 -15 -11 -24 -25 -26 -15 -2 -23 -10 -23 -23 0 -10 -6
-19 -14 -19 -8 0 -27 -5 -43 -11 -26 -10 -27 -12 -8 -19 16 -7 12 -9 -22 -15
-33 -6 -43 -12 -43 -26 0 -12 -7 -19 -19 -19 -13 0 -21 -8 -23 -22 -2 -13 -9
-24 -15 -24 -7 -1 -17 -2 -23 -3 -5 0 -10 -10 -10 -21 0 -13 -7 -20 -20 -20
-13 0 -20 -7 -20 -19 0 -13 -8 -21 -22 -23 -15 -2 -24 -11 -26 -25 -2 -15 -10
-23 -23 -23 -12 0 -19 -7 -19 -19 0 -13 -8 -21 -22 -23 -15 -2 -24 -11 -26
-25 -2 -15 -10 -23 -23 -23 -12 0 -19 -7 -19 -19 0 -13 -8 -21 -22 -23 -15 -2
-23 -10 -23 -23 0 -11 -6 -21 -13 -21 -6 -1 -16 -2 -22 -3 -5 0 -10 -10 -10
-21 0 -13 -7 -20 -20 -20 -13 0 -20 -7 -20 -19 0 -13 -8 -21 -22 -23 -15 -2
-24 -11 -26 -25 -2 -15 -10 -23 -23 -23 -12 0 -19 -7 -19 -19 0 -13 -8 -21
-22 -23 -15 -2 -24 -11 -26 -24 -2 -12 -12 -24 -23 -27 -14 -4 -19 -14 -19
-40 0 -29 -4 -36 -22 -39 -15 -2 -24 -11 -26 -25 -2 -15 -10 -23 -23 -23 -14
0 -19 -7 -19 -25 0 -18 -4 -23 -15 -19 -11 4 -19 -3 -26 -24 -6 -17 -18 -33
-27 -37 -15 -6 -15 -8 3 -15 19 -8 19 -9 -2 -9 -17 -1 -23 -7 -23 -25 0 -17
-5 -23 -17 -22 -13 1 -19 -8 -21 -27 -2 -19 -8 -27 -17 -24 -20 8 -35 -14 -35
-50 0 -26 -4 -33 -20 -33 -17 0 -20 -7 -21 -47 -1 -27 -4 -38 -6 -25 -5 27
-23 29 -23 2 0 -11 -4 -20 -10 -20 -5 0 -11 -28 -11 -62 -1 -35 -3 -55 -6 -45
-6 24 -21 21 -25 -5 -8 -61 13 -128 25 -80 3 9 5 -6 6 -35 1 -65 8 -83 32 -83
12 0 19 -7 19 -19 0 -14 8 -21 28 -23 18 -2 26 -8 24 -19 -3 -23 26 -29 151
-29 l107 0 0 25 c0 20 5 25 25 25 18 0 25 5 25 20 0 13 7 20 20 20 15 0 20 7
20 25 0 15 5 25 13 24 31 -4 37 3 38 44 1 23 3 34 6 25 2 -10 9 -18 15 -18 5
0 8 7 4 15 -3 8 -1 15 4 15 6 0 10 11 10 25 0 18 5 25 19 25 13 0 20 9 25 30
3 17 11 29 18 28 7 -2 17 14 22 35 7 26 15 37 28 37 11 0 18 7 18 20 0 11 7
20 15 20 9 0 21 13 28 28 7 16 17 27 24 25 12 -4 36 64 27 78 -2 4 6 9 18 11
15 2 22 9 22 21 -1 12 5 17 22 17 17 0 24 6 24 20 0 13 7 20 20 20 19 0 22 4
24 33 1 6 10 14 21 17 11 3 21 16 23 28 2 14 10 22 23 22 12 0 19 7 19 19 0
11 9 23 20 26 11 3 20 13 20 22 0 8 9 17 20 20 10 3 22 13 25 23 3 10 15 20
25 23 11 3 20 12 20 19 0 8 11 20 25 26 14 6 25 18 25 26 0 9 6 13 14 10 15
-6 40 29 29 40 -3 3 4 6 16 6 14 0 25 7 28 20 3 11 14 20 24 20 14 0 19 7 19
25 0 20 5 25 25 25 18 0 25 5 25 20 0 13 7 20 20 20 13 0 20 7 20 19 0 13 11
20 43 27 27 6 42 15 42 24 0 8 11 17 25 20 14 3 25 12 25 20 0 8 9 17 20 20
11 3 21 16 23 28 3 18 10 22 43 22 35 0 40 3 38 28 0 4 10 9 23 12 12 3 25 15
28 25 3 11 11 20 18 21 6 1 26 2 42 3 23 1 30 6 30 21 0 14 7 20 21 20 12 0
23 8 26 19 3 13 17 21 44 25 30 5 39 11 39 26 0 15 8 19 43 22 35 2 43 7 45
26 2 12 9 22 15 21 7 -1 27 -1 45 0 25 1 32 5 30 19 -2 13 6 18 42 22 35 4 45
9 44 23 -1 13 6 17 35 17 40 0 62 15 54 36 -3 9 9 14 44 16 39 2 48 6 47 21
-2 14 7 17 48 17 58 0 90 14 82 35 -5 12 4 15 45 15 44 0 51 3 51 20 0 18 7
20 65 20 39 0 65 4 65 11 0 5 4 8 9 4 5 -3 12 -1 16 5 3 5 -2 10 -11 10 -10 0
-15 2 -12 5 2 3 40 7 83 10 89 7 96 10 88 30 -4 12 9 15 77 15 81 0 135 14
110 30 -6 4 35 10 92 12 56 3 111 9 121 13 17 7 17 8 0 20 -15 11 15 14 172
17 184 3 258 14 190 29 -16 4 132 7 330 7 198 -1 344 -3 325 -7 -74 -13 -2
-26 180 -31 142 -4 179 -8 161 -16 -42 -18 -5 -28 124 -33 70 -2 110 -7 95
-11 l-25 -7 28 -12 c16 -6 64 -11 108 -11 71 0 101 -10 67 -23 -18 -6 69 -22
140 -26 13 0 21 -5 17 -10 -10 -16 31 -31 85 -31 43 0 50 -3 48 -17 -3 -15 6
-18 59 -21 55 -3 62 -5 65 -25 3 -19 11 -23 53 -27 36 -4 50 -9 50 -20 0 -11
14 -16 58 -18 31 -2 57 -7 57 -12 0 -6 -5 -10 -12 -10 -6 0 -3 -7 8 -15 10 -8
35 -15 55 -15 28 0 38 -5 42 -20 4 -16 14 -20 46 -20 33 0 41 -3 41 -19 0 -19
25 -31 68 -31 15 0 22 -6 22 -20 0 -17 7 -20 48 -21 26 -1 39 -3 29 -6 -18 -5
-19 -27 -1 -29 33 -3 61 -18 60 -32 0 -9 6 -17 14 -18 8 0 27 -2 43 -2 19 -2
27 -7 27 -21 0 -13 9 -20 30 -25 17 -3 29 -11 28 -18 -2 -7 13 -16 34 -22 21
-5 38 -17 41 -27 3 -9 15 -19 28 -21 13 -1 24 -10 24 -18 0 -8 17 -18 40 -25
24 -6 40 -16 40 -25 0 -8 10 -16 23 -18 13 -2 22 -10 22 -22 0 -11 10 -20 25
-24 14 -4 25 -13 25 -21 0 -9 14 -17 40 -21 30 -5 40 -11 40 -25 0 -14 7 -19
25 -19 20 0 25 -5 25 -25 0 -18 5 -25 20 -25 13 0 20 -7 20 -20 0 -15 7 -20
25 -20 14 0 24 -3 24 -7 -3 -20 2 -43 9 -42 20 3 30 -3 35 -21 3 -12 14 -20
26 -20 12 0 20 -3 20 -7 -3 -21 3 -33 16 -33 9 0 20 -11 25 -25 6 -15 17 -25
30 -25 11 0 19 -3 19 -7 -4 -23 3 -33 21 -33 14 0 20 -7 20 -21 0 -12 8 -23
19 -26 11 -3 21 -13 24 -24 3 -11 14 -19 27 -19 11 0 19 -4 16 -9 -10 -16 5
-41 25 -41 12 0 19 -7 19 -20 0 -14 7 -20 24 -20 16 0 23 -5 22 -17 0 -9 8
-19 19 -22 11 -3 20 -12 21 -18 1 -7 2 -25 3 -39 0 -16 8 -28 20 -31 11 -3 22
-16 25 -29 4 -15 14 -24 26 -24 13 0 20 -7 20 -20 0 -13 7 -20 19 -20 14 0 20
-10 25 -41 5 -31 10 -40 22 -35 10 4 16 -3 21 -24 4 -21 11 -30 24 -30 14 0
19 -7 19 -25 0 -14 4 -25 10 -25 5 0 9 -6 7 -12 -1 -7 4 -12 11 -11 7 2 12 -8
12 -26 0 -28 22 -47 41 -35 5 3 9 -6 9 -20 0 -19 5 -26 20 -26 13 0 20 -7 20
-20 0 -15 7 -20 25 -20 20 0 25 -5 25 -25 l0 -25 110 0 c64 0 110 4 110 10 0
5 7 7 15 4 8 -4 15 -1 15 5 0 6 -8 11 -17 12 -29 1 16 17 50 18 20 1 27 6 27
21 0 13 7 20 19 20 24 0 31 18 32 88 1 31 4 47 6 35 2 -13 8 -23 12 -23 15 0
21 78 10 107 -10 26 -12 27 -19 8 -6 -14 -9 -5 -9 31 -1 33 -6 56 -16 64 -8 7
-12 16 -9 21 3 5 1 9 -5 9 -5 0 -12 -8 -14 -17 -3 -10 -5 3 -6 30 -1 39 -4 47
-20 47 -14 0 -21 10 -26 36 -4 23 -13 38 -25 41 -11 3 -20 16 -22 32 -2 18 -9
26 -20 25 -13 -1 -18 5 -18 22 0 19 -5 24 -27 25 -17 1 -21 3 -10 6 9 2 17 9
17 14 0 6 -4 8 -10 4 -5 -3 -13 9 -18 27 -6 22 -14 33 -25 32 -12 -1 -17 6
-17 22 0 17 -6 24 -20 24 -13 0 -20 7 -20 20 0 11 -6 23 -14 26 -8 3 -12 12
-9 20 3 8 0 14 -5 14 -6 0 -13 -8 -15 -17 -3 -10 -5 -1 -6 20 -1 29 -6 40 -20
44 -11 3 -22 16 -25 29 -4 15 -14 24 -26 24 -13 0 -20 7 -20 20 0 13 -7 20
-19 20 -13 0 -21 8 -23 23 -2 14 -11 23 -25 25 -15 2 -23 10 -23 23 0 12 -7
19 -20 19 -13 0 -20 7 -20 20 0 11 -4 21 -10 21 -5 1 -16 2 -22 3 -7 0 -13 10
-13 21 0 13 -8 21 -22 23 -15 2 -23 10 -23 23 0 14 -7 19 -25 19 -15 0 -25 5
-24 13 3 27 -2 37 -21 37 -13 0 -20 7 -20 20 0 13 -7 20 -19 20 -13 0 -21 8
-23 23 -2 14 -11 23 -25 25 -15 2 -23 10 -23 23 0 12 -7 19 -20 19 -13 0 -20
7 -20 20 0 13 -9 22 -25 26 -15 4 -25 13 -25 24 0 13 -9 20 -27 22 -16 2 -28
9 -28 17 0 13 -13 18 -57 23 -11 2 -18 11 -18 25 0 16 -6 23 -20 23 -13 0 -20
7 -20 20 0 15 -7 20 -24 20 -18 0 -25 6 -28 23 -2 18 -11 23 -43 27 -27 3 -40
10 -40 20 0 8 -10 16 -22 18 -14 2 -23 11 -25 25 -2 18 -12 23 -48 28 -25 3
-35 7 -22 7 36 3 25 20 -18 27 -29 5 -40 12 -40 25 0 21 -18 30 -63 31 -18 1
-24 3 -14 6 9 2 17 9 17 15 0 5 -7 8 -15 4 -8 -3 -15 -1 -15 4 0 6 -11 10 -24
10 -16 0 -23 5 -22 17 1 17 -48 37 -71 29 -6 -3 -13 5 -15 17 -2 18 -11 23
-45 25 -35 3 -43 7 -43 23 0 15 -7 19 -31 19 -25 0 -29 3 -24 19 5 16 -1 20
-45 26 -30 4 -48 11 -44 17 10 15 -16 28 -57 28 -28 0 -36 4 -35 17 1 18 -29
30 -80 32 -23 1 -33 7 -37 21 -4 16 -14 20 -50 20 -40 0 -45 2 -40 20 5 18 0
20 -46 20 -44 0 -51 3 -51 20 0 11 -4 21 -10 21 -5 1 -14 3 -20 4 -5 1 -30 3
-55 4 -38 1 -45 4 -45 21 0 18 -7 20 -65 20 -57 0 -65 2 -65 19 0 24 -19 31
-87 31 -31 0 -53 3 -50 7 4 3 2 12 -4 20 -8 9 -37 13 -90 13 -46 0 -79 4 -79
10 0 6 6 10 13 10 8 0 7 4 -3 10 -8 5 -54 10 -102 10 -52 0 -88 4 -88 10 0 6
8 10 18 10 15 1 14 2 -3 12 -11 7 -81 15 -155 18 -91 5 -127 10 -111 15 51 17
-13 24 -244 25 -205 2 -224 4 -175 14 l55 12 -40 7 c-47 9 -386 16 -465 11z"/>
<path d="M9140 10830 c-151 -3 -232 -9 -245 -17 -20 -12 -20 -12 -1 -13 13 0
17 -3 10 -10 -5 -5 -59 -11 -119 -12 -97 -3 -110 -5 -107 -20 2 -15 -9 -18
-85 -20 -77 -3 -88 -5 -87 -20 1 -14 -7 -18 -40 -19 -68 -2 -101 -13 -100 -32
2 -14 -8 -17 -62 -17 -36 0 -64 -4 -64 -10 0 -5 0 -13 0 -17 0 -5 -21 -10 -47
-13 -40 -4 -49 -9 -51 -27 -3 -19 -10 -23 -40 -23 -47 0 -82 -10 -82 -22 0 -6
7 -8 15 -4 8 3 15 1 15 -4 0 -6 -17 -10 -37 -10 -55 0 -85 -10 -79 -26 3 -9
-4 -16 -22 -20 -15 -3 -38 -10 -52 -16 l-25 -11 25 -8 c20 -5 15 -7 -22 -8
-44 -1 -53 -7 -45 -28 1 -5 -18 -10 -43 -13 -37 -4 -46 -9 -48 -27 -3 -17 -11
-23 -40 -25 -25 -2 -37 -8 -37 -18 0 -9 -12 -17 -30 -20 -23 -4 -30 -10 -29
-28 0 -16 -5 -22 -23 -23 -42 -3 -46 -4 -50 -16 -2 -6 4 -13 14 -16 10 -3 -3
-5 -29 -6 -44 -1 -48 -3 -48 -25 0 -17 -5 -23 -17 -22 -12 0 -19 -7 -21 -21
-3 -17 -10 -23 -28 -23 -17 0 -24 -6 -24 -19 0 -14 -10 -20 -40 -25 -31 -5
-40 -11 -40 -26 0 -14 -7 -20 -21 -20 -12 0 -23 -8 -26 -20 -3 -11 -14 -20
-24 -20 -14 0 -19 -7 -19 -25 0 -20 -5 -25 -25 -25 -18 0 -25 -5 -25 -20 0
-13 -7 -20 -20 -20 -15 0 -20 -7 -20 -25 0 -16 -4 -23 -13 -19 -16 6 -41 -21
-33 -35 4 -5 -4 -11 -16 -13 -15 -2 -24 -11 -26 -24 -2 -16 -8 -20 -23 -17
-15 4 -19 0 -19 -20 0 -19 -6 -26 -22 -29 -15 -2 -24 -11 -26 -25 -2 -15 -10
-23 -23 -23 -16 0 -19 -7 -19 -40 0 -34 -3 -40 -21 -40 -12 0 -23 -8 -26 -20
-3 -11 -14 -20 -24 -20 -14 0 -19 -7 -19 -25 0 -18 -5 -25 -19 -25 -15 0 -21
-10 -26 -40 -4 -22 -11 -40 -16 -40 -6 0 -7 6 -4 13 4 6 -1 3 -9 -7 -9 -11
-16 -27 -16 -37 0 -9 -9 -19 -20 -22 -16 -4 -20 -14 -20 -46 0 -37 -2 -41 -25
-41 l-25 0 0 -110 c0 -109 0 -110 25 -116 19 -5 25 -13 25 -35 0 -32 30 -58
70 -60 17 -1 19 -3 7 -6 -9 -2 -15 -9 -11 -14 3 -5 10 -7 15 -4 5 4 9 1 9 -4
0 -7 43 -11 124 -11 98 0 126 3 136 15 7 8 9 15 4 16 -5 1 2 4 16 8 15 4 26
15 28 29 2 14 10 22 23 22 13 0 19 7 19 24 0 18 6 25 23 28 12 2 22 10 23 18
1 8 2 25 2 38 2 15 8 22 22 22 15 0 20 7 20 25 0 18 5 25 20 25 13 0 22 9 26
25 3 14 12 25 19 25 15 0 25 22 25 56 0 17 6 24 20 24 13 0 20 7 20 19 0 12 9
21 25 25 16 4 25 13 25 26 0 13 7 20 20 20 13 0 20 7 20 19 0 13 8 21 23 23
14 2 23 11 25 26 2 14 10 22 23 22 12 0 19 7 19 20 0 13 7 20 20 20 11 0 21 5
21 10 1 6 2 16 3 23 0 6 11 13 24 15 14 2 22 10 22 23 0 12 7 19 20 19 15 0
20 7 20 25 0 20 5 24 22 22 17 -1 24 4 26 21 3 18 10 22 43 22 32 0 39 4 39
19 0 13 8 21 23 23 14 2 23 11 25 26 3 16 10 22 28 22 17 0 24 5 24 20 0 17 7
20 39 20 33 0 40 4 43 22 2 15 11 22 33 25 51 6 59 11 45 28 -11 13 -7 15 24
15 29 0 36 4 36 19 0 16 8 20 43 23 36 3 42 6 41 26 -1 20 4 22 49 22 44 0 49
2 44 20 -5 18 0 20 39 20 30 0 46 5 50 14 3 8 12 12 20 9 8 -3 14 0 14 5 0 6
-8 13 -17 15 -10 3 10 5 45 6 55 1 62 3 62 21 0 17 7 20 43 20 56 0 87 9 87
26 0 10 12 14 39 14 67 0 101 11 101 31 0 17 9 19 93 21 124 2 122 1 121 19
-2 28 432 41 823 25 117 -5 210 -13 207 -17 -2 -5 -12 -6 -22 -2 -13 4 -12 1
4 -10 11 -8 27 -15 35 -15 65 4 199 -4 199 -11 0 -5 -9 -7 -20 -4 -11 3 -20 0
-20 -6 0 -10 14 -15 33 -12 4 0 7 -3 7 -9 0 -5 3 -9 8 -9 4 1 32 1 63 0 48 -1
57 -4 62 -21 4 -18 14 -20 74 -20 59 -1 66 -2 50 -14 -16 -13 -16 -14 5 -20
13 -3 40 -6 60 -6 29 0 36 -3 32 -15 -8 -19 33 -35 89 -35 36 -1 39 -2 22 -12
-19 -11 -19 -11 0 -19 11 -4 39 -8 63 -8 33 -1 42 -5 42 -18 0 -14 -2 -15 -9
-4 -5 7 -11 9 -14 4 -7 -11 35 -33 62 -33 12 0 18 -7 17 -17 -1 -18 4 -20 57
-22 20 -1 27 -6 27 -21 0 -15 7 -20 30 -21 51 -2 55 -4 56 -16 1 -7 2 -17 3
-23 0 -5 12 -10 25 -10 17 0 23 -5 22 -17 -1 -14 8 -19 42 -21 37 -3 42 -6 42
-28 0 -17 6 -24 19 -24 10 0 21 -9 24 -20 3 -11 14 -20 25 -20 11 0 22 -8 25
-20 3 -14 17 -21 46 -26 31 -5 41 -11 41 -25 0 -12 7 -19 20 -19 13 0 20 -7
20 -20 0 -15 7 -20 25 -20 15 0 25 -5 24 -12 -3 -28 2 -38 21 -38 13 0 20 -7
20 -20 0 -13 7 -20 19 -20 13 0 21 -8 23 -22 2 -15 11 -24 26 -26 14 -2 22
-10 22 -23 0 -12 7 -19 19 -19 13 0 21 -8 23 -22 2 -14 13 -25 28 -29 14 -4
21 -7 17 -8 -4 -1 -3 -10 3 -21 6 -11 16 -17 25 -14 12 5 15 -2 15 -29 0 -33
20 -64 33 -50 4 3 7 -3 7 -15 0 -21 32 -47 44 -35 3 3 6 -6 6 -20 0 -20 5 -27
19 -27 14 0 20 -10 25 -40 5 -31 11 -40 26 -40 15 0 20 -7 20 -25 0 -18 5 -25
19 -25 13 0 21 -8 23 -22 2 -13 12 -24 26 -28 13 -3 23 -8 23 -12 -1 -5 -1
-13 -1 -18 0 -7 47 -10 133 -8 109 3 132 6 132 18 0 8 9 17 20 20 11 3 21 16
23 28 2 14 10 22 23 22 14 0 19 7 19 26 0 14 4 23 9 20 5 -4 16 -3 25 0 13 5
16 25 16 115 0 60 -4 109 -9 109 -5 0 -12 8 -14 18 -4 16 -5 16 -6 0 -2 -37
-21 -16 -21 23 0 32 -4 42 -19 46 -12 3 -21 17 -26 39 -3 19 -10 34 -16 34 -6
0 -7 -4 -4 -10 3 -5 2 -10 -4 -10 -5 0 -12 18 -16 40 -5 30 -11 40 -25 40 -12
0 -20 8 -22 23 -2 12 -10 22 -18 22 -8 0 -17 9 -20 20 -3 11 -16 21 -28 23
-18 3 -22 10 -22 43 0 32 -4 39 -19 39 -12 0 -21 9 -25 25 -4 16 -13 25 -25
25 -13 0 -21 8 -23 23 -2 14 -9 21 -21 21 -12 -1 -17 5 -17 22 0 19 -5 24 -24
24 -19 0 -23 4 -19 19 5 19 -21 36 -38 25 -5 -3 -9 6 -9 20 0 19 -5 26 -20 26
-13 0 -20 7 -20 20 0 15 -7 20 -25 20 -19 0 -25 5 -25 21 0 12 -8 23 -19 26
-11 3 -21 13 -24 24 -3 11 -14 19 -25 19 -11 0 -22 8 -25 19 -3 13 -17 22 -41
26 -26 5 -36 12 -36 26 0 13 -7 19 -24 19 -18 0 -26 6 -28 22 -2 12 -12 25
-23 28 -11 3 -20 12 -20 20 0 10 -13 16 -42 18 -35 3 -43 7 -43 23 0 14 -7 19
-26 19 -14 0 -23 4 -20 9 14 22 -7 41 -48 42 -22 1 -33 3 -23 6 30 8 19 23
-23 29 -29 5 -40 11 -40 24 0 21 -19 30 -61 30 -22 0 -29 5 -29 20 0 17 -7 20
-44 20 -35 0 -44 3 -42 17 1 12 -11 19 -40 25 -29 6 -43 15 -47 28 -4 16 -14
20 -46 20 -34 0 -41 3 -41 20 0 17 -7 20 -44 20 -39 0 -45 3 -48 23 -3 19 -10
22 -56 25 -34 2 -50 7 -46 14 11 17 -18 28 -77 28 -47 0 -57 3 -55 17 1 20
-30 31 -93 32 -24 1 -41 4 -38 8 4 3 2 12 -4 20 -8 9 -37 13 -90 13 -72 0 -79
2 -79 20 0 19 -7 20 -112 21 -62 0 -122 4 -133 9 -16 7 -14 9 15 10 32 1 33 2
15 12 -12 7 -72 13 -145 15 -299 7 -510 8 -720 3z"/>
<path d="M9090 9538 c-19 -6 -29 -13 -22 -15 35 -13 3 -23 -72 -23 -47 0 -97
-5 -113 -11 -26 -10 -27 -12 -8 -19 14 -6 5 -9 -31 -9 -52 -1 -140 -29 -99
-32 35 -2 -24 -17 -72 -18 -36 -1 -43 -4 -43 -21 0 -17 -7 -20 -45 -20 -41 0
-45 -2 -45 -25 0 -14 -3 -24 -7 -24 -5 1 -25 1 -45 0 -31 -1 -38 -5 -38 -21 0
-16 -7 -20 -35 -20 -28 0 -37 -5 -45 -24 -6 -16 -20 -26 -47 -31 -22 -5 -31
-10 -20 -12 34 -8 16 -23 -28 -23 -38 0 -45 -3 -45 -20 0 -13 -7 -20 -20 -20
-15 0 -20 -7 -20 -25 0 -20 -5 -25 -25 -25 -19 0 -25 -5 -25 -21 0 -14 -5 -19
-14 -16 -8 3 -20 -1 -26 -8 -7 -8 -17 -12 -22 -9 -5 3 -12 -3 -15 -15 -3 -12
-13 -21 -25 -21 -11 0 -22 -8 -25 -19 -3 -11 -13 -21 -24 -24 -11 -3 -19 -14
-19 -25 0 -14 -8 -22 -22 -24 -15 -2 -24 -11 -26 -25 -2 -13 -9 -23 -17 -23
-14 0 -38 -57 -29 -71 3 -5 -6 -9 -20 -9 -19 0 -26 -5 -26 -20 0 -13 -7 -20
-19 -20 -14 0 -21 -8 -23 -27 -2 -16 -7 -28 -13 -28 -30 -1 -34 -18 -33 -155
0 -77 4 -141 9 -141 5 -1 15 -2 22 -3 6 0 13 -11 15 -23 2 -15 10 -23 22 -23
12 0 20 -8 22 -22 3 -23 6 -23 156 -26 98 -2 152 1 153 8 1 5 2 16 3 23 0 6
11 13 24 15 14 2 22 10 22 22 0 12 8 20 23 22 16 2 23 11 25 31 2 16 8 25 14
21 14 -9 28 15 28 49 0 20 5 27 20 27 19 0 24 10 21 38 -1 7 9 12 24 12 18 0
25 5 25 19 0 13 8 21 23 23 15 2 21 9 19 21 -2 9 3 17 11 17 25 0 67 25 62 38
-3 7 5 12 21 12 17 0 28 7 31 20 3 13 14 20 29 20 19 0 24 5 24 25 0 22 4 25
39 25 38 0 64 23 38 34 -7 2 3 5 21 5 25 1 32 5 32 21 0 15 7 20 28 20 37 0
102 19 102 30 0 5 -10 11 -22 13 -13 2 6 5 40 6 55 1 65 4 69 21 4 17 14 20
58 20 83 0 151 32 93 43 -35 7 279 11 580 8 90 -1 132 -5 122 -11 -28 -17 5
-32 89 -37 70 -5 81 -8 81 -24 0 -16 8 -19 49 -19 40 0 49 -3 47 -17 -1 -13
10 -20 41 -27 26 -5 43 -15 45 -25 2 -9 10 -16 18 -17 8 -1 27 -2 41 -2 19 -2
26 -7 25 -19 -1 -14 8 -19 41 -21 34 -3 42 -7 45 -25 2 -14 11 -23 26 -25 14
-2 22 -10 22 -23 0 -14 7 -19 25 -19 18 0 25 -5 25 -19 0 -21 17 -30 58 -32
17 -1 21 -3 10 -6 -10 -2 -18 -9 -18 -15 0 -5 7 -8 15 -4 8 3 15 1 15 -4 0 -6
9 -10 20 -10 13 0 20 -7 20 -20 0 -15 7 -20 26 -20 14 0 23 -4 20 -9 -10 -16
5 -41 25 -41 13 0 19 -7 19 -24 0 -34 10 -56 25 -56 7 0 16 -11 19 -25 4 -16
13 -25 26 -25 13 0 20 -7 20 -19 0 -13 8 -21 23 -23 14 -2 22 -10 22 -23 0
-19 7 -20 155 -20 153 0 155 0 158 23 2 14 10 22 23 22 12 0 19 7 19 19 0 12
9 21 24 25 l24 6 0 147 c0 143 0 148 -21 153 -13 4 -23 15 -25 28 -2 14 -10
22 -23 22 -12 0 -19 7 -19 20 0 15 -7 20 -26 20 -14 0 -23 4 -19 10 11 17 -15
82 -30 76 -9 -3 -15 4 -17 17 -2 14 -11 23 -25 25 -15 2 -23 10 -23 24 0 11
-8 22 -20 25 -10 3 -22 14 -25 24 -4 10 -9 18 -13 18 -26 -4 -41 3 -36 16 4 9
-1 17 -12 21 -11 4 -28 14 -38 23 -11 9 -16 10 -12 4 4 -7 2 -13 -3 -13 -6 0
-11 9 -11 20 0 15 -7 20 -25 20 -19 0 -25 5 -25 21 0 12 -8 23 -19 26 -11 3
-21 13 -24 24 -4 15 -14 19 -46 19 -34 0 -41 3 -41 19 0 13 -8 21 -22 23 -13
2 -24 9 -24 16 -1 6 -2 17 -3 22 0 6 -19 10 -41 10 -33 0 -40 3 -40 20 0 17
-7 20 -44 20 -39 0 -45 3 -48 23 -2 18 -10 23 -45 25 -35 3 -43 7 -43 23 0 16
-8 19 -52 21 -29 0 -59 1 -65 1 -7 -1 -13 7 -13 17 0 23 -19 30 -83 31 -37 0
-46 3 -32 9 19 7 18 9 -8 19 -16 6 -64 11 -107 11 -43 0 -82 5 -85 10 -3 6 2
10 12 11 14 0 12 3 -7 12 -33 15 -691 19 -740 5z"/>
<path d="M5115 8652 c-30 -6 -42 -22 -19 -24 10 -1 -6 -4 -36 -7 -47 -5 -55
-9 -58 -28 -2 -15 -10 -23 -24 -23 -11 0 -22 -8 -25 -20 -3 -11 -14 -20 -24
-20 -17 0 -19 -8 -19 -75 0 -43 -4 -75 -10 -75 -5 0 -10 5 -10 12 0 6 -3 9 -6
5 -10 -10 -19 -100 -24 -227 -1 -40 -4 -48 -9 -30 -21 74 -26 -44 -29 -618 -2
-449 1 -624 9 -655 11 -39 13 -40 20 -17 5 19 8 12 9 -30 2 -30 4 -86 6 -125
3 -70 22 -149 23 -97 1 12 6 22 11 22 6 0 10 -40 10 -100 0 -102 16 -171 31
-133 5 11 8 -3 8 -37 1 -30 4 -72 7 -93 6 -30 10 -36 25 -32 16 5 18 -2 21
-67 2 -57 6 -73 18 -73 11 0 16 -16 20 -65 4 -58 7 -65 28 -68 20 -3 22 -9 22
-64 0 -51 3 -61 19 -65 15 -4 21 -15 23 -46 2 -31 8 -43 23 -47 16 -4 21 -15
24 -60 4 -64 7 -71 26 -63 12 4 15 -5 15 -42 0 -38 4 -48 19 -52 15 -4 21 -15
23 -47 2 -33 7 -42 25 -44 18 -3 22 -11 25 -45 2 -33 7 -42 21 -41 14 2 17 -6
17 -42 0 -40 2 -44 24 -44 22 0 25 -5 28 -42 2 -34 7 -43 21 -42 12 1 17 -6
17 -27 0 -22 5 -29 20 -29 16 0 20 -7 20 -33 0 -36 15 -58 36 -50 9 3 14 -8
16 -39 2 -30 7 -43 18 -43 8 0 17 -11 20 -25 3 -16 13 -26 27 -28 17 -3 23
-11 25 -40 2 -28 7 -37 21 -36 12 1 17 -6 17 -26 0 -22 5 -29 23 -32 12 -2 21
-7 20 -13 -2 -16 19 -36 34 -31 9 4 13 -5 13 -35 0 -32 4 -42 19 -46 11 -3 21
-15 23 -27 2 -13 11 -22 26 -24 14 -2 22 -10 22 -23 0 -17 4 -20 28 -18 4 0 9
-10 12 -23 4 -14 15 -24 28 -26 12 -2 20 -8 16 -13 -3 -5 -11 -7 -17 -3 -7 3
-4 -1 6 -9 9 -8 17 -22 17 -32 0 -9 9 -19 20 -22 11 -3 20 -11 20 -17 0 -7 11
-22 24 -33 13 -11 25 -25 27 -31 2 -6 11 -12 19 -14 8 -2 17 -12 20 -23 3 -11
16 -21 28 -23 14 -2 22 -10 22 -23 0 -12 7 -19 20 -19 15 0 20 -7 20 -25 0
-20 5 -25 25 -25 18 0 25 -5 25 -20 0 -13 7 -20 20 -20 15 0 20 -7 20 -25 0
-18 5 -25 19 -25 10 0 21 -9 24 -20 3 -12 14 -20 26 -20 14 0 21 -6 21 -20 0
-13 9 -22 25 -26 14 -3 25 -12 25 -20 0 -8 16 -16 40 -20 22 -4 37 -11 34 -15
-3 -5 -10 -7 -15 -4 -5 4 -9 2 -9 -4 0 -6 15 -13 34 -17 25 -4 36 -12 38 -28
2 -13 11 -22 26 -24 14 -2 22 -10 22 -23 0 -14 7 -19 25 -19 18 0 23 -4 18
-16 -8 -21 13 -34 55 -34 17 0 32 -4 32 -10 0 -5 -7 -7 -15 -4 -8 4 -15 1 -15
-5 0 -6 18 -14 40 -17 30 -5 40 -11 40 -25 0 -17 4 -20 28 -18 4 0 9 -10 12
-23 5 -19 13 -24 48 -26 34 -3 42 -7 42 -23 0 -13 7 -19 24 -19 18 0 25 -6 28
-23 2 -18 10 -23 41 -25 29 -3 37 -7 37 -23 0 -15 7 -19 31 -19 23 0 30 -4 26
-14 -3 -8 0 -17 8 -20 9 -3 15 3 18 17 l4 22 2 -22 c1 -15 9 -25 25 -29 14 -3
23 -12 22 -22 -1 -13 9 -18 42 -20 34 -3 42 -7 42 -23 0 -16 7 -19 44 -19 39
0 45 -3 48 -22 2 -19 10 -24 46 -26 34 -3 42 -7 42 -23 0 -16 7 -19 46 -19 35
0 45 -3 41 -14 -8 -21 14 -36 54 -36 28 0 38 -5 42 -20 4 -17 14 -20 66 -20
34 0 61 -4 61 -10 0 -5 -8 -10 -17 -11 -30 -1 39 -28 73 -29 23 0 33 -6 37
-20 4 -17 14 -20 66 -20 54 0 61 -2 61 -20 0 -13 7 -20 20 -21 11 -1 25 -3 30
-4 6 -1 29 -3 52 -4 23 0 38 -4 35 -8 -4 -3 -2 -12 4 -20 8 -9 38 -13 93 -14
50 -1 72 -4 56 -8 -24 -7 -24 -8 -5 -18 11 -6 60 -14 110 -18 87 -6 124 -14
74 -16 -49 -1 33 -28 88 -29 66 0 73 8 73 98 0 28 4 42 8 34 16 -25 32 38 32
126 0 53 4 82 9 73 19 -30 29 3 29 93 l0 95 -30 10 c-17 6 -70 11 -117 12 -56
1 -77 4 -61 9 l25 7 -28 12 c-16 6 -52 11 -80 11 -59 0 -97 8 -97 21 0 5 8 6
18 3 9 -3 6 2 -8 10 -15 9 -50 15 -88 16 -40 0 -61 4 -57 10 4 6 11 8 16 5 5
-4 9 -2 9 3 0 13 -36 22 -94 22 -41 0 -47 2 -37 14 16 19 3 26 -63 33 -42 4
-55 10 -59 24 -4 15 -15 19 -50 19 -40 0 -45 2 -40 19 4 17 -1 20 -43 23 -34
2 -49 7 -49 17 0 16 -29 29 -67 30 -21 1 -25 5 -21 21 5 18 0 20 -41 20 -38 0
-46 3 -46 19 0 21 -19 31 -60 31 -20 0 -27 5 -26 18 1 13 -8 18 -41 20 -34 3
-42 7 -45 25 -2 18 -11 23 -45 25 -35 3 -43 7 -43 23 0 13 -7 19 -24 19 -17 0
-23 5 -22 18 1 12 -8 18 -31 20 -22 2 -30 7 -27 17 6 15 -25 35 -55 35 -14 0
-21 6 -21 20 0 17 -7 20 -42 21 -24 1 -35 3 -25 6 28 7 14 27 -26 37 -26 7
-37 15 -37 28 0 12 -7 18 -24 18 -17 0 -23 5 -22 17 0 11 -7 19 -21 21 -14 2
-23 11 -25 25 -2 16 -11 23 -31 25 -16 2 -25 8 -21 14 9 14 -15 28 -48 28 -22
0 -28 5 -28 21 0 12 -8 23 -19 26 -11 3 -21 13 -24 24 -3 11 -14 19 -25 19
-14 0 -22 8 -24 23 -2 14 -10 22 -23 22 -13 0 -20 7 -20 20 0 13 -8 21 -22 23
-15 2 -23 10 -23 22 0 12 -8 20 -22 22 -15 2 -23 10 -23 23 0 12 -9 21 -23 25
-13 3 -23 8 -23 13 2 23 -1 27 -18 27 -13 0 -21 8 -23 22 -2 14 -13 25 -28 29
-14 4 -21 7 -17 8 4 1 3 10 -3 21 -6 10 -17 17 -24 14 -10 -4 -16 7 -21 36 -5
30 -11 40 -21 36 -10 -4 -16 4 -21 24 -4 21 -11 30 -24 30 -13 0 -19 7 -19 21
0 12 -8 23 -18 26 -10 2 -22 14 -27 26 -6 12 -16 22 -24 22 -8 0 -16 8 -18 18
-7 35 -9 42 -16 55 -5 7 -12 10 -17 7 -5 -3 -10 7 -12 22 -2 20 -9 29 -25 31
-15 2 -23 10 -23 23 0 12 -7 19 -20 19 -17 0 -20 7 -20 45 0 37 -3 45 -19 45
-12 0 -21 9 -25 25 -4 16 -13 25 -26 25 -17 0 -20 7 -20 40 0 33 -3 40 -20 40
-15 0 -20 7 -20 26 0 35 -17 64 -35 58 -10 -4 -15 5 -17 38 -2 34 -6 42 -20
40 -14 -2 -18 4 -18 28 0 16 -5 30 -11 30 -5 0 -8 4 -5 8 2 4 1 14 -5 22 -7
12 -9 10 -9 -8 0 -13 -4 -20 -10 -17 -5 3 -10 24 -10 46 0 32 -3 39 -20 39
-17 0 -20 7 -20 46 0 54 -17 95 -31 73 -6 -9 -9 1 -9 31 -1 39 -29 117 -30 83
0 -7 -4 -13 -10 -13 -5 0 -10 20 -10 44 0 50 -8 76 -22 76 -6 0 -5 -6 2 -15
10 -12 10 -15 -4 -15 -13 0 -16 12 -16 63 -1 39 -6 69 -15 81 -13 17 -15 18
-15 3 0 -9 -4 -17 -10 -17 -6 0 -10 30 -10 69 0 47 -4 72 -14 80 -11 10 -15 8
-19 -6 -3 -10 -5 11 -6 47 -1 80 -20 155 -31 125 -4 -12 -9 12 -12 61 -3 45
-12 92 -19 105 l-13 24 -6 -30 c-4 -16 -8 33 -11 110 -5 143 -17 199 -30 140
-4 -16 -8 31 -9 105 -1 74 -3 144 -5 155 -2 11 -5 47 -6 80 -1 33 -4 71 -7 85
-5 22 -6 21 -18 -15 -10 -34 -12 -1 -13 220 0 171 3 255 9 245 5 -8 10 -28 10
-44 0 -57 13 -16 17 56 3 40 6 87 7 103 2 17 4 93 6 170 2 84 5 126 9 105 l7
-35 12 55 c8 35 11 117 10 220 -3 139 -5 165 -18 165 -8 0 -17 9 -20 20 -3 11
-16 21 -29 23 -14 2 -21 9 -18 17 9 22 -15 35 -67 36 -40 1 -45 3 -26 9 l25 7
-25 6 c-45 10 -85 14 -105 9z"/>
<path d="M13691 8652 c-7 -6 -11 -15 -7 -20 4 -7 -11 -12 -41 -14 -41 -3 -48
-6 -51 -25 -3 -17 -10 -23 -28 -23 -17 0 -24 -5 -24 -20 0 -13 -7 -20 -20 -20
-19 0 -20 -7 -20 -174 0 -108 4 -186 11 -203 l12 -28 7 25 c4 14 9 -49 12
-140 3 -91 8 -178 11 -193 6 -35 17 -47 17 -19 0 12 5 22 10 22 6 0 10 -120
10 -341 0 -224 -3 -338 -10 -334 -5 3 -10 16 -10 27 0 29 -12 16 -17 -19 -3
-15 -8 -102 -12 -193 -4 -91 -9 -154 -10 -140 -3 25 -3 25 -16 -5 -9 -19 -14
-68 -15 -137 0 -89 -2 -106 -14 -102 -23 9 -36 -29 -37 -108 -1 -40 -3 -65 -6
-55 -5 18 -5 18 -19 0 -8 -11 -13 -44 -14 -84 0 -58 -3 -67 -20 -72 -17 -4
-20 -14 -20 -65 0 -55 -2 -61 -22 -64 -21 -3 -23 -9 -26 -65 -3 -55 -6 -63
-22 -63 -17 0 -20 -7 -20 -45 0 -37 -3 -45 -19 -45 -22 0 -31 -26 -31 -87 0
-36 -3 -43 -20 -43 -17 0 -20 -7 -20 -45 0 -38 -3 -45 -20 -45 -17 0 -20 -7
-20 -45 0 -41 -2 -45 -25 -45 -22 0 -25 -4 -25 -40 0 -33 -3 -40 -20 -40 -16
0 -20 -7 -20 -31 0 -23 -4 -30 -15 -25 -18 6 -35 -22 -35 -58 0 -19 -5 -26
-20 -26 -17 0 -20 -7 -20 -40 0 -33 -3 -40 -20 -40 -13 0 -22 -9 -26 -25 -4
-16 -13 -25 -25 -25 -16 0 -19 -8 -19 -45 0 -38 -3 -45 -20 -45 -13 0 -20 -7
-20 -20 0 -15 -7 -20 -25 -20 -22 0 -25 -4 -25 -36 0 -28 -3 -35 -15 -30 -8 3
-15 1 -15 -4 0 -5 8 -11 18 -13 13 -4 12 -5 -5 -6 -14 -1 -23 -8 -25 -23 -2
-13 -10 -23 -18 -23 -8 0 -19 -10 -25 -22 -5 -12 -17 -24 -27 -26 -10 -3 -18
-14 -18 -25 0 -11 -8 -22 -19 -25 -13 -3 -22 -17 -26 -40 -5 -23 -14 -37 -26
-40 -11 -3 -19 -14 -19 -25 0 -14 -8 -22 -22 -24 -13 -2 -23 -10 -23 -18 0 -8
-9 -17 -20 -20 -11 -3 -21 -16 -23 -28 -2 -14 -10 -22 -23 -22 -12 0 -19 -7
-19 -19 0 -13 -8 -21 -22 -23 -15 -2 -24 -11 -26 -25 -2 -15 -10 -23 -23 -23
-12 0 -19 -7 -19 -19 0 -13 -8 -21 -22 -23 -15 -2 -23 -10 -23 -23 0 -13 -7
-20 -20 -20 -13 0 -21 -8 -23 -22 -2 -14 -11 -23 -25 -25 -14 -2 -21 -9 -19
-20 2 -11 -5 -18 -20 -20 -15 -2 -24 -11 -26 -25 -2 -14 -11 -23 -25 -25 -12
-2 -22 -10 -22 -18 0 -10 -13 -17 -40 -20 -32 -4 -41 -9 -43 -28 -2 -15 -9
-22 -20 -20 -10 2 -21 -7 -27 -19 -5 -13 -18 -23 -27 -23 -11 0 -18 -7 -18
-18 0 -13 -11 -21 -37 -28 -27 -6 -38 -14 -37 -27 1 -12 -6 -17 -27 -17 -22 0
-29 -5 -29 -20 0 -15 -7 -20 -25 -20 -20 0 -25 -5 -25 -24 0 -22 -5 -25 -42
-28 -34 -2 -43 -7 -42 -20 1 -13 -6 -18 -23 -18 -30 0 -65 -18 -58 -29 2 -5
-9 -11 -25 -15 -21 -4 -30 -11 -30 -26 0 -17 -6 -20 -46 -20 -41 0 -46 -2 -41
-20 4 -17 0 -20 -23 -20 -41 0 -60 -10 -60 -31 0 -16 -8 -19 -46 -19 -41 0
-46 -2 -41 -20 4 -16 0 -20 -21 -21 -38 -1 -67 -14 -67 -30 0 -10 -15 -15 -47
-17 -40 -3 -48 -6 -48 -23 0 -16 -7 -19 -41 -19 -32 0 -42 -4 -46 -20 -4 -15
-14 -20 -42 -21 -56 -2 -86 -13 -83 -32 2 -14 -5 -17 -40 -17 -51 0 -88 -9
-88 -21 0 -5 8 -10 18 -10 9 -1 -17 -6 -58 -10 -41 -5 -81 -10 -87 -11 -7 -1
-13 -5 -13 -10 0 -4 6 -8 13 -8 8 0 7 -4 -3 -10 -8 -5 -42 -10 -75 -10 -35 0
-68 -6 -78 -14 -18 -14 -18 -14 0 -19 10 -3 -22 -6 -72 -7 -142 -3 -139 -2
-143 -94 -3 -70 -2 -78 16 -83 18 -4 20 -15 24 -108 3 -104 11 -132 28 -105 7
10 10 -3 10 -42 0 -31 4 -68 10 -82 9 -24 15 -26 62 -26 51 1 137 27 94 29
-45 2 -3 12 68 17 42 2 89 10 104 16 l27 11 -25 7 c-17 6 -2 9 50 10 41 1 79
2 83 1 5 -1 11 7 14 18 4 15 18 20 74 25 63 7 69 9 64 27 -6 17 -1 19 39 19
52 0 100 16 91 30 -4 6 9 10 32 10 34 1 106 29 76 30 -7 0 -13 5 -13 10 0 6
21 10 48 10 52 0 78 12 68 29 -5 7 6 11 33 11 52 0 71 8 71 31 0 16 7 19 41
19 32 0 42 4 46 19 4 15 15 21 47 23 33 2 42 7 44 25 3 18 11 22 45 25 34 2
41 7 39 21 -2 12 4 17 20 17 40 0 69 12 64 25 -3 8 7 15 25 19 21 4 29 11 29
26 0 17 6 20 45 20 38 0 45 3 45 20 0 13 7 20 20 20 11 0 20 4 20 10 0 5 3 9
8 9 21 -4 31 3 26 16 -5 11 1 15 25 15 24 0 31 4 31 20 0 14 7 20 24 20 13 0
30 8 37 17 10 11 10 14 2 9 -8 -4 -13 -2 -13 6 0 8 11 14 28 15 49 1 52 3 52
23 0 15 7 20 25 20 18 0 25 5 25 20 0 15 7 20 29 20 36 0 70 28 49 41 -8 6 -2
9 20 9 25 0 32 4 32 19 0 13 8 21 23 23 16 2 22 9 21 26 0 17 5 22 23 22 16 0
23 6 23 20 0 13 7 20 20 20 13 0 20 7 20 20 0 11 5 20 10 20 6 0 10 -4 10 -10
0 -5 5 -10 11 -10 5 0 7 5 4 10 -4 6 8 13 25 17 25 4 31 10 27 24 -4 15 0 19
19 19 22 0 25 4 23 28 0 4 10 9 23 12 14 4 24 15 26 27 2 14 12 23 25 25 14 2
21 10 21 21 -1 12 5 17 22 17 19 0 24 5 24 24 0 18 6 25 23 28 12 2 22 10 22
18 0 8 9 17 20 20 10 3 22 15 25 25 3 11 12 20 20 20 8 0 16 10 18 22 2 13 13
24 28 27 13 4 23 10 23 14 -1 4 0 23 1 42 2 25 4 29 7 13 8 -43 33 -19 33 32
0 17 6 25 22 27 13 2 24 12 28 26 3 13 8 23 13 23 23 -2 27 1 27 18 0 13 8 21
23 23 14 2 23 11 25 24 2 12 12 24 23 27 15 4 19 14 19 45 0 32 4 39 17 38 10
0 22 9 28 22 5 12 18 22 27 22 14 0 18 9 19 43 1 23 3 34 6 25 10 -37 33 -11
33 37 0 17 6 25 22 27 15 2 25 12 28 28 3 14 12 25 20 25 11 0 16 13 18 43 2
25 7 40 13 36 18 -11 39 18 39 52 0 27 4 34 20 34 15 0 20 7 20 29 0 24 3 28
20 24 18 -5 20 0 20 41 0 42 2 46 25 46 23 0 25 4 25 44 0 36 3 44 18 42 13
-1 18 8 20 41 3 34 7 42 25 45 18 2 23 11 25 46 3 34 7 42 23 42 16 0 19 7 19
45 0 38 3 45 20 45 17 0 20 7 20 39 0 51 10 78 21 60 11 -19 29 32 29 82 0 32
3 39 20 39 18 0 20 7 20 64 0 59 2 65 23 68 20 3 22 9 25 71 2 57 6 67 20 65
14 -3 17 7 20 65 2 57 6 67 20 65 20 -4 29 30 32 122 1 36 4 57 7 47 4 -16 7
-15 19 8 9 18 14 59 14 116 0 53 4 89 10 89 6 0 10 -5 10 -12 0 -8 3 -9 10 -2
6 6 13 71 17 145 4 74 10 123 13 109 5 -22 8 -19 18 22 8 30 12 133 12 280 0
154 4 228 10 218 5 -8 10 -31 11 -50 4 -69 17 84 17 190 0 112 -14 262 -17
185 -1 -22 -6 -47 -11 -55 -6 -10 -10 66 -10 225 0 154 -4 254 -12 280 l-12
40 -7 -30 c-5 -21 -7 -9 -8 45 -3 104 -11 189 -21 214 -7 17 -9 18 -9 4 -1
-10 -5 -18 -11 -18 -6 0 -10 30 -10 70 0 62 -2 70 -19 70 -10 0 -21 9 -24 20
-3 12 -14 20 -25 20 -14 0 -22 8 -24 23 -3 19 -11 23 -58 28 -31 3 -42 7 -25
8 24 1 27 4 14 11 -24 14 -122 22 -138 12z"/>
<path d="M9255 8250 c-3 -5 -3 -14 0 -20 4 -6 -9 -10 -33 -10 -68 0 -102 -11
-102 -31 0 -16 -8 -19 -46 -19 -41 0 -46 -2 -41 -19 4 -16 -1 -21 -22 -23 -18
-2 -27 -10 -29 -25 -2 -15 -10 -23 -23 -23 -12 0 -19 -7 -19 -19 0 -13 -8 -21
-22 -23 -23 -3 -23 -5 -23 -151 0 -118 3 -150 15 -157 8 -5 18 -6 22 -4 4 3 8
-6 8 -20 0 -22 5 -26 29 -26 21 0 28 -5 27 -17 -1 -13 10 -21 42 -27 23 -6 42
-15 42 -22 0 -12 31 -24 66 -24 13 0 24 -8 27 -20 4 -16 14 -20 46 -20 30 0
41 -4 41 -15 0 -19 39 -35 88 -36 20 -1 29 -3 20 -6 -28 -7 -21 -20 13 -27 50
-10 116 -7 145 6 l27 13 -24 6 c-20 6 -18 7 12 8 62 2 101 13 95 27 -5 13 4
17 62 29 35 7 42 21 15 28 -10 3 -4 5 13 6 75 3 120 23 77 34 -10 3 -1 5 20 6
21 0 49 9 64 18 23 16 24 17 7 24 -13 5 -5 8 24 8 38 1 42 3 42 26 0 18 5 25
19 25 26 0 33 49 29 195 -3 105 -4 110 -25 113 -15 2 -23 10 -23 23 0 12 -7
19 -19 19 -13 0 -21 8 -23 23 -2 15 -11 23 -29 25 -21 2 -26 7 -22 23 5 17 0
19 -41 19 -38 0 -46 3 -46 19 0 21 -32 30 -109 32 -25 1 -38 3 -28 6 18 5 18
5 0 19 -22 16 -378 21 -388 4z"/>
<path d="M9262 6698 c-7 -7 -12 -36 -12 -65 0 -45 -3 -53 -19 -53 -22 0 -31
-18 -32 -63 -1 -30 -1 -31 -9 -7 l-7 25 -12 -28 c-6 -16 -11 -37 -11 -48 0
-11 -4 -18 -9 -15 -13 9 -42 -4 -40 -18 4 -33 -2 -45 -18 -39 -12 5 -15 2 -10
-10 3 -9 2 -19 -3 -22 -6 -4 -10 -15 -10 -26 0 -12 -7 -19 -20 -19 -13 0 -20
-7 -20 -19 0 -13 -8 -21 -22 -23 -15 -2 -24 -11 -26 -25 -2 -15 -10 -23 -23
-23 -14 0 -19 -7 -19 -25 0 -14 -3 -24 -7 -24 -24 4 -32 -5 -39 -43 -4 -24 -9
-35 -12 -25 -6 30 -22 19 -28 -21 -5 -31 -10 -38 -27 -38 -15 1 -23 -6 -25
-21 -2 -15 -10 -23 -23 -23 -13 0 -19 -7 -19 -21 0 -11 -5 -17 -10 -14 -6 4
-7 11 -4 17 4 7 2 8 -5 4 -6 -4 -9 -11 -6 -16 3 -4 -9 -13 -25 -19 -17 -5 -29
-16 -28 -23 2 -8 -8 -14 -24 -16 -20 -2 -28 -9 -28 -22 0 -12 -8 -20 -22 -22
-15 -2 -23 -10 -23 -23 0 -13 -8 -21 -22 -23 -15 -2 -23 -10 -23 -22 0 -14
-10 -20 -41 -25 -28 -5 -39 -11 -35 -20 3 -9 -4 -15 -22 -17 -19 -2 -28 -10
-30 -24 -2 -17 -12 -23 -43 -28 -41 -6 -52 -21 -21 -29 9 -3 -2 -5 -25 -6 -41
-1 -48 -7 -44 -38 1 -9 -13 -13 -44 -13 l-45 0 0 -260 c0 -167 -4 -260 -10
-260 -6 0 -10 84 -10 232 0 127 -2 229 -5 226 -3 -3 -6 -128 -8 -279 l-2 -274
83 -3 c76 -3 82 -1 82 17 0 16 8 20 43 23 35 2 43 7 45 26 3 19 10 22 44 22
31 0 41 4 45 20 3 11 13 20 22 20 10 0 21 3 25 8 4 4 12 7 17 7 5 0 8 5 7 10
-2 6 -6 9 -10 8 -5 -2 -8 2 -8 7 0 6 18 10 40 10 33 0 40 3 40 20 0 15 7 20
25 20 20 0 25 5 25 25 0 15 5 25 13 24 6 -1 27 -1 45 0 29 1 32 4 27 21 -5 16
-2 20 19 20 19 0 26 5 26 19 0 14 10 20 41 25 35 6 40 10 36 26 -4 17 0 20 24
20 22 0 29 5 29 19 0 13 8 21 23 23 14 2 23 11 25 26 2 14 10 22 23 22 12 0
19 7 19 20 0 13 7 20 18 20 10 0 27 7 38 16 10 8 14 13 7 10 -6 -4 -14 -2 -17
3 -3 5 3 11 14 14 20 5 20 -3 20 -1728 0 -953 3 -1740 6 -1749 5 -14 39 -16
270 -16 l264 0 0 2325 0 2325 -188 0 c-133 0 -192 -4 -200 -12z"/>
</g>
</svg>
